<svg width="323" height="58" viewBox="0 0 323 58" fill="none" xmlns="http://www.w3.org/2000/svg">
<g filter="url(#filter0_d_1340_131127)">
<path d="M35.6842 24.8116C35.8019 24.6534 35.6842 24.8043 35.6253 24.8668C35.5039 25.0029 35.3678 25.1391 35.2758 25.2973C35.1948 25.4334 35.1617 25.5953 35.0955 25.7351C35.1065 25.7167 35.2169 25.5217 35.1286 25.6395C35.055 25.7351 35.0108 25.8639 34.9446 25.9633C34.8674 26.081 34.7533 26.195 34.9152 26.0184C34.8416 26.0994 34.7754 26.184 34.6981 26.2613C34.6208 26.3385 34.5436 26.4158 34.459 26.4894C34.4038 26.5372 34.3449 26.5851 34.2897 26.6329C34.378 26.5593 34.4516 26.5188 34.3155 26.6071C34.1205 26.7322 33.9328 26.8536 33.7268 26.9603C33.6238 27.0155 33.517 27.0597 33.4103 27.1112C33.6789 26.9861 33.3809 27.1186 33.2705 27.159C33.0277 27.2473 32.7775 27.3209 32.5236 27.3761C32.4059 27.4019 32.2881 27.4239 32.1704 27.446C32.141 27.4534 31.9349 27.4828 32.1299 27.4571C32.3249 27.4313 32.0637 27.4644 32.0269 27.4644C31.7657 27.4828 31.5045 27.4975 31.2432 27.4902C31.1218 27.4902 31.004 27.4755 30.8826 27.4681C30.8495 27.4681 30.6472 27.4497 30.8422 27.4681C31.0372 27.4865 30.787 27.4571 30.7465 27.4497C30.4779 27.3982 30.2167 27.3356 29.9555 27.2547C29.7899 27.2069 29.628 27.1517 29.4661 27.0928C29.3962 27.067 29.33 27.0413 29.2601 27.0119C29.032 26.9199 29.4404 27.0965 29.2159 26.9898C28.6419 26.7175 28.0974 26.4084 27.5786 26.0442C27.4572 25.9596 27.3394 25.8749 27.2217 25.7866C27.0819 25.6836 27.2107 25.783 27.2364 25.8014C27.1776 25.7572 27.1223 25.7094 27.0635 25.6652C26.817 25.4629 26.5741 25.2568 26.3387 25.0434C24.4364 23.3215 22.8948 21.2353 20.897 19.6164C18.8071 17.9239 16.3787 16.8091 13.645 16.8643C11.1798 16.9158 8.68156 17.8099 6.8934 19.5391C5.10524 21.2684 4.29947 23.6085 4.5423 25.9633C4.79985 28.4578 6.0729 30.7832 8.26578 32.0857C10.6831 33.5206 13.9356 33.5611 16.1616 31.7508C18.0123 30.2497 18.5348 27.1406 17.1109 25.1906C16.18 23.9139 14.62 23.1044 13.0195 23.4944C11.419 23.8844 10.5322 25.7866 11.3895 27.2657C11.8127 27.9942 12.5816 28.4284 13.4168 28.4321C14.2521 28.4358 15.0468 27.6962 15.01 26.8389C14.9732 25.9816 14.3109 25.2531 13.4168 25.2458C13.6634 25.2458 13.8768 25.3782 14.0497 25.5401C13.8694 25.3709 14.2042 25.8087 14.2226 25.8713C14.127 25.5622 14.2006 26.2576 14.2226 25.9301C14.2226 25.9632 14.1307 26.3275 14.2116 26.081C14.1343 26.3165 14.0239 26.4305 13.8363 26.574L13.9467 26.5115C13.7591 26.5887 13.7554 26.5998 13.9283 26.5483L13.7627 26.5777C13.9467 26.5851 13.9393 26.5777 13.7369 26.5519C13.8731 26.574 14.0019 26.6145 14.1307 26.6586C13.7922 26.5409 14.1748 26.7065 14.23 26.7359C14.5464 26.8904 14.0313 26.5115 14.2668 26.7617C14.3146 26.8132 14.3698 26.872 14.425 26.9162C14.6862 27.1517 14.2705 26.6292 14.4434 26.9346C14.4949 27.0266 14.5501 27.1222 14.6053 27.2142C14.7892 27.5196 14.5206 26.8831 14.6089 27.2289C14.6273 27.2988 14.6531 27.3651 14.6715 27.435C14.6899 27.5049 14.7046 27.5748 14.7193 27.6447C14.7488 27.8213 14.7451 27.7882 14.7083 27.5417C14.7635 27.5527 14.7009 28.0862 14.7083 28.1451C14.7377 28.3585 14.7966 27.7624 14.7157 28.1046C14.6899 28.2113 14.6678 28.3217 14.6384 28.4284C14.62 28.4946 14.5869 28.7007 14.5317 28.7448C14.6347 28.6602 14.6568 28.4983 14.5574 28.6712C14.5022 28.7706 14.4544 28.8699 14.3956 28.9656C14.3551 29.0281 14.3146 29.0907 14.2705 29.1532C14.4103 28.9803 14.4213 28.9619 14.3109 29.0944C14.23 29.1753 13.7922 29.5506 14.1307 29.3078C13.9099 29.466 13.6818 29.5947 13.4426 29.7198C13.7333 29.569 13.4794 29.7051 13.3911 29.7346C13.2844 29.7714 13.1777 29.8045 13.071 29.8339C12.9422 29.8707 12.8098 29.8928 12.6773 29.9222C12.4933 29.9516 12.5007 29.9516 12.6994 29.9222C12.6074 29.9332 12.5191 29.9369 12.4271 29.9443C12.199 29.9553 11.9709 29.9553 11.7428 29.9369C11.6802 29.9332 11.2387 29.8633 11.6176 29.9296C11.4815 29.9038 11.3454 29.8817 11.2092 29.8486C10.9848 29.7971 10.7641 29.7309 10.5433 29.6573C10.4918 29.6389 10.087 29.4549 10.4145 29.6131C10.2894 29.5543 10.168 29.4954 10.0466 29.4292C9.81477 29.3041 9.59403 29.1569 9.38063 29.0024C9.69706 29.2305 9.22977 28.8626 9.14515 28.7816C8.97222 28.616 8.81403 28.4321 8.65582 28.2518C8.91705 28.5498 8.66314 28.2592 8.61899 28.1929C8.55276 28.0936 8.48656 27.9942 8.42402 27.8949C8.29892 27.6925 8.19588 27.4791 8.0855 27.2657C8.14437 27.4902 7.91257 26.9272 8.0855 27.2657C8.05975 27.1701 8.01558 27.0781 7.98247 26.9861C7.9052 26.7617 7.84265 26.5335 7.79114 26.3017C7.77274 26.2245 7.75806 26.1472 7.74335 26.07C7.72863 25.9927 7.71387 25.9154 7.70284 25.8345C7.73227 26.0626 7.73596 26.0847 7.71388 25.9044C7.68445 25.4629 7.68445 25.0397 7.71388 24.6019C7.73596 24.2008 7.6403 24.9514 7.71757 24.5541C7.73596 24.4584 7.75437 24.3591 7.77277 24.2634C7.82796 24.0132 7.89784 23.763 7.97879 23.5202C8.00454 23.4503 8.15908 23.0787 7.98983 23.4576C8.02295 23.384 8.05607 23.3105 8.08918 23.2405C8.19221 23.0235 8.30993 22.8137 8.4387 22.6114C8.50493 22.5084 8.57486 22.4127 8.64477 22.3134C8.61533 22.3575 8.43502 22.5635 8.62267 22.3428C8.81031 22.122 9.00532 21.9086 9.21872 21.7099C9.29598 21.64 9.778 21.239 9.46893 21.4781C9.66762 21.3273 9.87732 21.1838 10.0907 21.055C10.271 20.9446 10.455 20.8416 10.6426 20.746C10.7567 20.6871 10.8708 20.6356 10.9848 20.5804C11.2681 20.4443 10.753 20.665 11.1394 20.5215C11.5625 20.3633 11.9966 20.2382 12.4381 20.1462C12.5632 20.1205 12.692 20.0984 12.8208 20.0763C13.2439 19.9954 12.486 20.0984 12.9165 20.0616C13.174 20.0395 13.4316 20.0175 13.6928 20.0101C13.954 20.0027 14.2116 20.0101 14.4691 20.0285C14.5758 20.0358 14.6825 20.0432 14.7929 20.0542C14.8849 20.0653 15.1756 20.1168 14.8261 20.0542C15.3375 20.1462 15.8342 20.2603 16.3235 20.4369C16.3566 20.4479 16.765 20.6135 16.4891 20.4958C16.6252 20.5546 16.7614 20.6172 16.8938 20.6834C17.1146 20.7938 17.3316 20.9115 17.545 21.0366C17.7768 21.1728 18.005 21.3199 18.2294 21.4745C18.3325 21.5444 18.4281 21.618 18.5311 21.6879C18.6746 21.7982 18.6893 21.8056 18.5716 21.7136C18.6489 21.7762 18.7261 21.835 18.8034 21.8976C19.6901 22.6187 20.4922 23.4319 21.2759 24.2597C22.847 25.9191 24.3923 27.6116 26.3313 28.8589C28.469 30.2313 31.0335 30.8678 33.5207 30.1834C34.6466 29.8744 35.732 29.293 36.5635 28.4652C36.9499 28.0789 37.2994 27.6189 37.5423 27.1259C37.8771 26.4379 37.9727 25.8124 37.7041 25.0765C37.3583 24.1199 36.2434 24.0242 35.6584 24.8079L35.6842 24.8116Z" fill="#911002" style="fill:#911002;fill:color(display-p3 0.5686 0.0627 0.0078);fill-opacity:1;"/>
<rect x="43.3596" width="236" height="50" rx="8" fill="#911002" style="fill:#911002;fill:color(display-p3 0.5686 0.0627 0.0078);fill-opacity:1;"/>
<path d="M287.035 24.8116C286.917 24.6534 287.035 24.8043 287.094 24.8668C287.215 25.0029 287.351 25.1391 287.443 25.2973C287.524 25.4334 287.558 25.5953 287.624 25.7351C287.613 25.7167 287.502 25.5217 287.591 25.6395C287.664 25.7351 287.708 25.8639 287.775 25.9633C287.852 26.081 287.966 26.195 287.804 26.0184C287.878 26.0994 287.944 26.184 288.021 26.2613C288.098 26.3385 288.176 26.4158 288.26 26.4894C288.315 26.5372 288.374 26.5851 288.43 26.6329C288.341 26.5593 288.268 26.5188 288.404 26.6071C288.599 26.7322 288.786 26.8536 288.992 26.9603C289.095 27.0155 289.202 27.0597 289.309 27.1112C289.04 26.9861 289.338 27.1186 289.449 27.159C289.692 27.2473 289.942 27.3209 290.196 27.3761C290.313 27.4019 290.431 27.4239 290.549 27.446C290.578 27.4534 290.784 27.4828 290.589 27.4571C290.394 27.4313 290.656 27.4644 290.692 27.4644C290.954 27.4828 291.215 27.4975 291.476 27.4902C291.597 27.4902 291.715 27.4755 291.837 27.4681C291.87 27.4681 292.072 27.4497 291.877 27.4681C291.682 27.4865 291.932 27.4571 291.973 27.4497C292.241 27.3982 292.503 27.3356 292.764 27.2547C292.929 27.2069 293.091 27.1517 293.253 27.0928C293.323 27.067 293.389 27.0413 293.459 27.0119C293.687 26.9199 293.279 27.0965 293.503 26.9898C294.077 26.7175 294.622 26.4084 295.141 26.0442C295.262 25.9596 295.38 25.8749 295.498 25.7866C295.637 25.6836 295.509 25.783 295.483 25.8014C295.542 25.7572 295.597 25.7094 295.656 25.6652C295.902 25.4629 296.145 25.2568 296.381 25.0434C298.283 23.3215 299.824 21.2353 301.822 19.6164C303.912 17.9239 306.341 16.8091 309.074 16.8643C311.539 16.9158 314.038 17.8099 315.826 19.5391C317.614 21.2684 318.42 23.6085 318.177 25.9633C317.919 28.4578 316.646 30.7832 314.453 32.0857C312.036 33.5206 308.784 33.5611 306.558 31.7508C304.707 30.2497 304.184 27.1406 305.608 25.1906C306.539 23.9139 308.099 23.1044 309.7 23.4944C311.3 23.8844 312.187 25.7866 311.33 27.2657C310.907 27.9942 310.138 28.4284 309.302 28.4321C308.467 28.4358 307.672 27.6962 307.709 26.8389C307.746 25.9816 308.408 25.2531 309.302 25.2458C309.056 25.2458 308.842 25.3782 308.67 25.5401C308.85 25.3709 308.515 25.8087 308.497 25.8713C308.592 25.5622 308.519 26.2576 308.497 25.9301C308.497 25.9632 308.589 26.3275 308.508 26.081C308.585 26.3165 308.695 26.4305 308.883 26.574L308.773 26.5115C308.96 26.5887 308.964 26.5998 308.791 26.5483L308.957 26.5777C308.773 26.5851 308.78 26.5777 308.982 26.5519C308.846 26.574 308.717 26.6145 308.589 26.6586C308.927 26.5409 308.544 26.7065 308.489 26.7359C308.173 26.8904 308.688 26.5115 308.452 26.7617C308.405 26.8132 308.349 26.872 308.294 26.9162C308.033 27.1517 308.449 26.6292 308.276 26.9346C308.224 27.0266 308.169 27.1222 308.114 27.2142C307.93 27.5196 308.199 26.8831 308.11 27.2289C308.092 27.2988 308.066 27.3651 308.048 27.435C308.029 27.5049 308.015 27.5748 308 27.6447C307.97 27.8213 307.974 27.7882 308.011 27.5417C307.956 27.5527 308.018 28.0862 308.011 28.1451C307.982 28.3585 307.923 27.7624 308.004 28.1046C308.029 28.2113 308.051 28.3217 308.081 28.4284C308.099 28.4946 308.132 28.7007 308.188 28.7448C308.085 28.6602 308.062 28.4983 308.162 28.6712C308.217 28.7706 308.265 28.8699 308.324 28.9656C308.364 29.0281 308.405 29.0907 308.449 29.1532C308.309 28.9803 308.298 28.9619 308.408 29.0944C308.489 29.1753 308.927 29.5506 308.589 29.3078C308.809 29.466 309.037 29.5947 309.277 29.7198C308.986 29.569 309.24 29.7051 309.328 29.7346C309.435 29.7714 309.542 29.8045 309.648 29.8339C309.777 29.8707 309.909 29.8928 310.042 29.9222C310.226 29.9516 310.219 29.9516 310.02 29.9222C310.112 29.9332 310.2 29.9369 310.292 29.9443C310.52 29.9553 310.748 29.9553 310.976 29.9369C311.039 29.9332 311.481 29.8633 311.102 29.9296C311.238 29.9038 311.374 29.8817 311.51 29.8486C311.734 29.7971 311.955 29.7309 312.176 29.6573C312.227 29.6389 312.632 29.4549 312.305 29.6131C312.43 29.5543 312.551 29.4954 312.673 29.4292C312.904 29.3041 313.125 29.1569 313.339 29.0024C313.022 29.2305 313.489 28.8626 313.574 28.7816C313.747 28.616 313.905 28.4321 314.063 28.2518C313.802 28.5498 314.056 28.2592 314.1 28.1929C314.166 28.0936 314.233 27.9942 314.295 27.8949C314.42 27.6925 314.523 27.4791 314.634 27.2657C314.575 27.4902 314.807 26.9272 314.634 27.2657C314.659 27.1701 314.704 27.0781 314.737 26.9861C314.814 26.7617 314.877 26.5335 314.928 26.3017C314.946 26.2245 314.961 26.1472 314.976 26.07C314.991 25.9927 315.005 25.9154 315.016 25.8345C314.987 26.0626 314.983 26.0847 315.005 25.9044C315.035 25.4629 315.035 25.0397 315.005 24.6019C314.983 24.2008 315.079 24.9514 315.002 24.5541C314.983 24.4584 314.965 24.3591 314.946 24.2634C314.891 24.0132 314.821 23.763 314.74 23.5202C314.715 23.4503 314.56 23.0787 314.729 23.4576C314.696 23.384 314.663 23.3105 314.63 23.2405C314.527 23.0235 314.409 22.8137 314.281 22.6114C314.214 22.5084 314.144 22.4127 314.074 22.3134C314.104 22.3575 314.284 22.5635 314.097 22.3428C313.909 22.122 313.714 21.9086 313.501 21.7099C313.423 21.64 312.941 21.239 313.25 21.4781C313.052 21.3273 312.842 21.1838 312.629 21.055C312.448 20.9446 312.264 20.8416 312.077 20.746C311.963 20.6871 311.848 20.6356 311.734 20.5804C311.451 20.4443 311.966 20.665 311.58 20.5215C311.157 20.3633 310.723 20.2382 310.281 20.1462C310.156 20.1205 310.027 20.0984 309.898 20.0763C309.475 19.9954 310.233 20.0984 309.803 20.0616C309.545 20.0395 309.288 20.0175 309.026 20.0101C308.765 20.0027 308.508 20.0101 308.25 20.0285C308.143 20.0358 308.037 20.0432 307.926 20.0542C307.834 20.0653 307.544 20.1168 307.893 20.0542C307.382 20.1462 306.885 20.2603 306.396 20.4369C306.363 20.4479 305.954 20.6135 306.23 20.4958C306.094 20.5546 305.958 20.6172 305.825 20.6834C305.605 20.7938 305.388 20.9115 305.174 21.0366C304.942 21.1728 304.714 21.3199 304.49 21.4745C304.387 21.5444 304.291 21.618 304.188 21.6879C304.045 21.7982 304.03 21.8056 304.148 21.7136C304.07 21.7762 303.993 21.835 303.916 21.8976C303.029 22.6187 302.227 23.4319 301.443 24.2597C299.872 25.9191 298.327 27.6116 296.388 28.8589C294.25 30.2313 291.686 30.8678 289.199 30.1834C288.073 29.8744 286.987 29.293 286.156 28.4652C285.769 28.0789 285.42 27.6189 285.177 27.1259C284.842 26.4379 284.747 25.8124 285.015 25.0765C285.361 24.1199 286.476 24.0242 287.061 24.8079L287.035 24.8116Z" fill="#911002" style="fill:#911002;fill:color(display-p3 0.5686 0.0627 0.0078);fill-opacity:1;"/>
</g>
<defs>
<filter id="filter0_d_1340_131127" x="0.5" y="0" width="321.719" height="58" filterUnits="userSpaceOnUse" color-interpolation-filters="sRGB">
<feFlood flood-opacity="0" result="BackgroundImageFix"/>
<feColorMatrix in="SourceAlpha" type="matrix" values="0 0 0 0 0 0 0 0 0 0 0 0 0 0 0 0 0 0 127 0" result="hardAlpha"/>
<feOffset dy="4"/>
<feGaussianBlur stdDeviation="2"/>
<feComposite in2="hardAlpha" operator="out"/>
<feColorMatrix type="matrix" values="0 0 0 0 0 0 0 0 0 0 0 0 0 0 0 0 0 0 0.25 0"/>
<feBlend mode="normal" in2="BackgroundImageFix" result="effect1_dropShadow_1340_131127"/>
<feBlend mode="normal" in="SourceGraphic" in2="effect1_dropShadow_1340_131127" result="shape"/>
</filter>
</defs>
</svg>
